<svg width="512" height="601" viewBox="0 0 512 601" fill="none" xmlns="http://www.w3.org/2000/svg">
<g clip-path="url(#clip0_1_13)">
<path fill-rule="evenodd" clip-rule="evenodd" d="M90.7471 115.503C91.0696 115.353 91.5614 115.124 93.8 114.6C83.9 122.8 71.5 119.6 88.2 116C90.2424 115.738 90.3924 115.668 90.7471 115.503ZM379.8 112.4C392.9 116.4 388.7 120.5 387.5 121.3C389.121 124.06 391.778 126.51 394.464 128.988C399.565 133.692 404.772 138.495 403.2 145.7C395.494 143.711 391.032 137.05 386.43 130.179C383.627 125.994 380.772 121.731 377.1 118.4C377.1 117.457 377.688 116.968 378.327 116.437C379.247 115.672 380.272 114.819 379.8 112.4ZM93.2 95.5C93.1 102 86.4 120.3 84.9 111.4C88.9786 103.913 82.4438 110.161 78.2889 114.134C75.0072 117.272 73.2102 118.99 79.3 111.4C79.8391 110.996 80.3701 110.602 80.8877 110.218C86.898 105.762 91.1005 102.646 85.3 99.7C88 98.5 90.6 97 93.2 95.5ZM0 256C0 114.6 114.6 0 256 0C397.4 0 512 114.6 512 256C512 297.078 502.315 335.907 485.101 370.324L485.5 370C485.5 370 443.478 449.758 400 494C355.868 538.907 264.078 596.008 256.5 600.692V601C256.5 601 256.415 600.948 256.25 600.846C256.085 600.948 256 601 256 601V600.692C248.422 596.008 156.632 538.907 112.5 494C84.8164 465.831 57.7235 423.262 41.6923 396.051C15.3292 355.799 0 307.678 0 256ZM264 86.2L262.8 85.8C258.359 91.5029 259.903 94.3786 261.469 97.2936C263.005 100.155 264.562 103.053 260.5 108.7C268.444 107.726 264.856 110.115 262.163 111.908C259.602 113.613 257.851 114.778 267.6 112C280.485 111.097 274.809 104.176 269.3 97.4583C265.658 93.0184 262.09 88.6671 264 86.2ZM119.5 107C111.6 110.4 134.2 96.2 141.4 102.2C155.208 98.8455 151.611 94.5782 150.406 93.1485C150.066 92.7456 149.916 92.5681 150.4 92.7C152.377 91.3518 153.163 88.4487 154.082 85.0523C155.209 80.8909 156.536 75.9891 160.5 72.3C150.288 78.5993 152.669 74.9009 155.505 70.497C158.611 65.6727 162.263 60.0017 150.5 65.7C147.06 67.9819 142.756 71.7429 138.33 75.6112C130.149 82.7615 121.548 90.2787 117.2 89.5C122.054 85.966 124.243 80.9272 126.391 75.9815C129.289 69.3119 132.113 62.8117 141.3 60.4C148.664 56.1853 154.934 54.5448 160.935 52.9747C167.89 51.1548 174.484 49.4295 182 43.9C175 47.4 162.3 51.3 176.4 44.4C167.3 46 200.2 34.2 201.6 34C193.994 35.0372 183.5 39.4608 176.181 42.5457C170.799 44.8147 167.134 46.3595 167.6 45.3C169.626 43.6201 161.96 46.188 154.324 48.7458C146.505 51.3647 138.719 53.973 141.4 52C89.9 81.2 47 130.5 33.5 189C35.7351 194.298 36.4112 201.566 37.0812 208.77C38.03 218.969 38.9666 229.039 44.3 233.2C49.9027 237.949 46.9638 247.424 43.7936 257.645C41.0225 266.58 38.0747 276.084 40.5 283.5C42.9266 296.8 49.1422 308.161 55.3261 319.464C62.3938 332.383 69.42 345.226 70.7 360.8C73.9842 376.517 83.9332 394.925 91.1757 408.325C93.1953 412.062 95.0045 415.409 96.4 418.2C97.3256 419.112 98.5565 420.359 99.9586 421.781C108.706 430.647 124.115 446.265 113.6 429.2C112.88 427.165 111.032 424.041 109.095 420.766C104.844 413.581 100.161 405.664 106 406.9C102.682 403.582 105.444 402.113 108.204 400.645C111.765 398.751 115.322 396.859 105.8 391C102.358 386.848 103.535 387.425 106.178 388.723C110.6 390.894 119.128 395.081 117 382.5C120.343 383.758 120.314 380.208 120.277 375.618C120.22 368.536 120.143 358.98 132.4 360.8C140.872 356.227 141.721 347.692 142.586 338.987C143.519 329.608 144.472 320.031 155 315C154.453 299.969 140.509 294.694 128.158 290.022C122.431 287.856 117.048 285.819 113.5 283C109.206 285.538 105.292 284.265 102.284 283.286C100.68 282.765 99.3328 282.327 98.3221 282.594C117.589 277.379 102.794 250 86.6 251.2C85.9268 245.244 84.0198 243.553 82.2542 241.987C80.6105 240.529 79.0893 239.18 78.8 234.6C74.4746 236.83 70.8849 233.611 67.9334 230.964C64.6079 227.983 62.0925 225.727 60.2479 232.81C62.2902 222.751 59.3035 225.396 55.4338 228.823C52.8758 231.088 49.9321 233.695 47.8 233.2C40.637 228.067 41.5859 220.74 42.5727 213.119C43.3356 207.229 44.1211 201.163 41.2 195.8C47.8 188.7 48.5 174.4 39.4 190.4C34 176.9 52.2 142.7 62.2 155.4C62.7098 158.262 62.2047 162.985 61.8244 166.542C61.2348 172.056 60.9448 174.767 65.2 163.4C66.7834 156.029 73.852 149.821 80.0417 144.384C84.7777 140.225 88.9991 136.517 89.8551 133.087C90.311 133.713 93.6823 131.264 97.8905 128.208C103.181 124.366 109.794 119.563 113.6 118.7C119.567 112.79 121.189 115.966 122.28 118.105C123.091 119.693 123.61 120.708 125.4 117C123.258 112.717 126.081 108.585 127.731 106.169C129.625 103.397 129.974 102.885 119.5 107ZM90 132.2C89.9783 132.494 89.9293 132.789 89.8551 133.087C89.7547 132.949 89.7956 132.662 90 132.2ZM59.7 235.3C59.8756 234.365 60.0582 233.538 60.2479 232.81C60.0943 233.566 59.9122 234.395 59.7 235.3ZM174.922 58.3887C175.439 57.5917 175.938 56.8231 176.4 56.2C178 57.9 180.8 57.8 187.1 51.8C180.6 54 191.5 46.6 190.4 47.5C193.923 46.1494 194.136 45.4195 194.34 44.723C194.482 44.2335 194.62 43.7604 195.9 43.1C195.011 43.2777 195.904 42.5206 196.93 41.6504C198.791 40.0722 201.09 38.1217 194 40.7C194.391 40.0861 195.467 39.5967 197.072 38.8669C198.342 38.2891 199.944 37.5605 201.8 36.5C190.8 40.1 183.8 41.5 200.1 36.5C202.8 36.8 202.2 35.8 200.7 35.8C189.9 36.7 181.8 43.5 184.2 44.3C188.9 42.7 189.3 44 185.2 46.6C185.975 48.3883 178.044 51.9177 170.961 55.0702C166.161 57.2062 161.75 59.1691 160.7 60.3C166.4 57.2 163.4 62.2 160.5 64.3C163.949 67.4672 165.466 65.6312 166.968 63.8126C167.6 63.0473 168.23 62.285 169 61.9C170.518 65.1759 172.866 61.5571 174.922 58.3887ZM196.416 56.2164C192.924 58.7894 186.14 63.7897 186 70.5C185.1 77.2 191 80.1 197.4 70.9C203.243 64.2302 212.85 61.0791 221.571 58.2183C227.625 56.2324 233.253 54.3863 236.9 51.6C228.708 51.0078 235.032 45.0572 239.428 50.9614C235.945 46.0602 238.361 44.9756 241.409 43.6071C243.954 42.4646 246.939 41.1243 247.3 37.2C252.134 33.6381 252.841 30.8449 253.256 29.2064C253.494 28.2687 253.636 27.7092 254.4 27.6L256.8 25.6C250.955 27.8406 249.736 27.7561 248.152 27.6462C246.483 27.5306 244.409 27.3867 236.1 29.9C226.746 30.5363 219.052 37.2465 213.405 42.1717C210.177 44.9864 207.618 47.2182 205.8 47.4C199.227 50.9318 201.388 50.734 203.29 50.56C205.266 50.3793 206.961 50.2242 198.3 54.3C198.812 54.4505 197.919 55.1084 196.416 56.2164ZM255.7 97.1C243.7 100.1 250.3 118.9 257.1 102.5C259.821 99.2927 258.764 98.7303 255.948 97.2323C255.867 97.189 255.784 97.1449 255.7 97.1ZM234.028 64.4545C230.422 64.8541 230.197 64.879 231.5 69.7C235.7 72.5 251.2 68.6 243 62.7C238.853 63.9198 235.956 64.2408 234.028 64.4545ZM427.612 330.567C419.583 340.791 411.023 351.693 417.7 363.2C433.2 350 435.2 334.3 436.1 318.4C434.072 322.34 430.886 326.397 427.612 330.567ZM447.911 178.606C449.614 178.423 451.342 178.238 453.1 178.1C456.988 179.615 459.524 183.194 461.353 185.775C463.147 188.306 464.26 189.877 465.3 187.6C467.008 191.666 468.81 196.841 470.65 202.124C474.193 212.303 477.877 222.882 481.3 226.7C480.513 220.909 479.905 215.02 479.294 209.106C477.963 196.228 476.621 183.235 473.4 170.9C483.8 193.5 463.9 142.6 456.6 134.9C425.3 83.4 373.8 44 315 28.9C311.658 28.8289 321.817 31.9941 321.817 31.9949C321.817 31.9953 320.14 31.4733 315.2 30C309.7 28.4 304 27.1 298.2 26.7C297.202 27.0992 322.104 36.7626 338.803 41.9698C329.531 39.0827 319.636 36.6156 329.9 41.1C319.183 37.8451 322.063 38.8286 328.252 40.9421C337.656 44.1531 354.698 49.9726 343.3 47.5C356.984 55.0354 348.847 51.2438 338.729 46.5289C326.961 41.0449 312.512 34.3118 326.6 42.7C336.1 46.8 345.6 50.9 329.5 46.4C335.021 49.2105 333.086 50.0563 330.585 51.1497C328.102 52.235 325.062 53.564 328.2 57.3C321.52 51.2533 322.434 52.6684 323.838 54.8418C324.872 56.4424 326.172 58.4545 324.9 58.2C328.789 62.4473 327.284 62.6096 326.133 62.7336C325.035 62.852 324.259 62.9356 328.8 66.5C328.12 66.1874 327.392 65.8558 326.638 65.5121C317.74 61.4574 305.116 55.7048 323 59.3C317.779 53.1969 305.53 51.4193 299.252 50.5083C296.992 50.1803 295.506 49.9647 295.4 49.7C290.4 50.1 290.2 53.8 291.1 60.8C291.045 66.8119 287.795 69.6277 285.086 71.9737C282.839 73.9202 280.965 75.5432 281.6 78.4C281.774 78.0293 281.849 78.5145 281.988 79.4161C282.485 82.6488 283.804 91.2336 293.5 84.9C302 100.2 308.2 91.2 307.9 83.9C303.4 81.4 297.2 57.7 307.9 65.1C302.663 78.0138 316.019 78.1073 322.466 78.1525C326.853 78.1832 328.041 78.1915 318 82.2C320.894 86.0412 319.773 87.7782 318.44 89.8439C317.24 91.7039 315.868 93.8305 317.1 98C306.4 100.9 292.9 103.8 293.7 88.5C290.395 90.2373 291.345 93.7702 292.275 97.2269C293.539 101.928 294.766 106.488 285.2 106.2C282.251 111.614 276.003 114.09 271.03 116.061C263.693 118.968 259.127 120.778 272 129.3C273.467 137.158 266.712 136.77 260.059 136.388C252.657 135.963 245.381 135.546 249.7 146.5C244.1 166.6 279.1 161.7 280.4 144.5C292.7 126.1 313.4 136.1 324.3 151.1C326.042 153.539 325.827 151.915 325.517 149.571C325.204 147.204 324.793 144.102 326.2 143.7C313 140.4 303.8 120.2 319 134.1C326.874 133.688 332.443 141.142 336.731 146.881C340.775 152.293 343.679 156.179 346.3 150.5C345 148.8 339.1 137.7 351.6 142.9C355.108 141.959 354.26 137.191 353.41 132.413C352.272 126.022 351.131 119.611 360.4 122.3C360.1 131.9 372.7 123.5 362 121.6C367.846 115.95 368.527 118.048 369.699 121.656C370.913 125.393 372.653 130.749 381.2 130.8C383.072 135.21 376.67 136.089 369.548 137.067C359.553 138.438 348.142 140.005 356.2 151.8C360.385 154.773 365.715 154.594 370.528 154.431C378.827 154.152 385.591 153.924 382.3 170C375.319 175.04 366.841 173.474 359.041 172.033C349.971 170.358 341.817 168.852 338 178.1C335.057 176.872 331.894 175.923 328.791 174.992C318.502 171.905 308.871 169.016 310.1 156.8C304.821 157.561 299.48 158.045 294.184 158.525C277.209 160.062 260.7 161.558 248.2 172C247.8 180.838 240.832 187.053 233.927 193.212C225.285 200.919 216.742 208.538 221.3 221.1C211 242.8 234.9 273.5 258.1 271.3C264.369 271.266 270.683 269.809 276.795 268.398C288.719 265.645 299.871 263.071 308.4 271.6C319.1 270.256 318.233 276.715 317.239 284.122C316.235 291.598 315.102 300.039 325.6 302.4C335.07 312.236 331.592 322.209 328.156 332.061C325.025 341.04 321.929 349.918 328.7 358.5C329.414 364.84 331.205 370.683 332.969 376.436C335.156 383.567 337.3 390.562 337.3 398.2C360.678 401.323 375.616 384.144 388.935 368.827C390.543 366.978 392.127 365.156 393.7 363.4C391.825 353.017 398.401 346.421 404.904 339.899C412.618 332.162 420.228 324.528 413.5 310.8C410.474 296.298 418.089 284.843 425.782 273.271C432.837 262.66 439.957 251.95 439 238.7C439.598 231.295 435.458 233.303 430.704 235.609C425.122 238.316 418.694 241.434 418.1 230.2C409.329 222.032 403.143 212.242 396.889 202.344C391.733 194.186 386.532 185.955 379.8 178.5C399.2 187.9 410.2 209 419.1 228.2C435 232.5 460.6 191.1 435.4 181.5C428.4 201.7 403.3 152.3 424.5 175.5C432.115 180.301 439.729 179.484 447.911 178.606Z" fill="#333333"/>
</g>
<defs>
<clipPath id="clip0_1_13">
<rect width="512" height="601" fill="white"/>
</clipPath>
</defs>
</svg>
